<mxfile host="app.diagrams.net" agent="Mozilla/5.0 (Windows NT 10.0; Win64; x64) AppleWebKit/537.36 (KHTML, like Gecko) Chrome/132.0.0.0 Safari/537.36 OPR/117.0.0.0 (Edition std-1)" version="26.1.3">
  <diagram name="Página-1" id="67lorJ-lqSFM9L7gfeR5">
    <mxGraphModel grid="1" page="1" gridSize="10" guides="1" tooltips="1" connect="1" arrows="1" fold="1" pageScale="1" pageWidth="827" pageHeight="1169" math="0" shadow="0">
      <root>
        <mxCell id="0" />
        <mxCell id="1" parent="0" />
        <mxCell id="NGbSKsDz_yVvKTC_mG_v-22" value="Baralho" style="swimlane;fontStyle=1;align=center;verticalAlign=top;childLayout=stackLayout;horizontal=1;startSize=26;horizontalStack=0;resizeParent=1;resizeParentMax=0;resizeLast=0;collapsible=1;marginBottom=0;whiteSpace=wrap;html=1;" vertex="1" parent="1">
          <mxGeometry x="330" y="70" width="230" height="148" as="geometry" />
        </mxCell>
        <mxCell id="NGbSKsDz_yVvKTC_mG_v-23" value="+ cartas: Carta [ ]" style="text;strokeColor=none;fillColor=none;align=left;verticalAlign=top;spacingLeft=4;spacingRight=4;overflow=hidden;rotatable=0;points=[[0,0.5],[1,0.5]];portConstraint=eastwest;whiteSpace=wrap;html=1;" vertex="1" parent="NGbSKsDz_yVvKTC_mG_v-22">
          <mxGeometry y="26" width="230" height="26" as="geometry" />
        </mxCell>
        <mxCell id="NGbSKsDz_yVvKTC_mG_v-24" value="" style="line;strokeWidth=1;fillColor=none;align=left;verticalAlign=middle;spacingTop=-1;spacingLeft=3;spacingRight=3;rotatable=0;labelPosition=right;points=[];portConstraint=eastwest;strokeColor=inherit;" vertex="1" parent="NGbSKsDz_yVvKTC_mG_v-22">
          <mxGeometry y="52" width="230" height="8" as="geometry" />
        </mxCell>
        <mxCell id="uIqwvRQl_m-xBXEmZ_Bq-2" value="+ chamarSistemaDeTroca(carta): void" style="text;strokeColor=none;fillColor=none;align=left;verticalAlign=top;spacingLeft=4;spacingRight=4;overflow=hidden;rotatable=0;points=[[0,0.5],[1,0.5]];portConstraint=eastwest;whiteSpace=wrap;html=1;fontFamily=Helvetica;fontSize=12;fontColor=default;labelBackgroundColor=default;" vertex="1" parent="NGbSKsDz_yVvKTC_mG_v-22">
          <mxGeometry y="60" width="230" height="28" as="geometry" />
        </mxCell>
        <mxCell id="NGbSKsDz_yVvKTC_mG_v-25" value="+ mostrarBaralho( ): void&lt;div&gt;&lt;br&gt;&lt;/div&gt;&lt;div&gt;+ mostrarQuantidadeCarta(carta): int&lt;/div&gt;" style="text;strokeColor=none;fillColor=none;align=left;verticalAlign=top;spacingLeft=4;spacingRight=4;overflow=hidden;rotatable=0;points=[[0,0.5],[1,0.5]];portConstraint=eastwest;whiteSpace=wrap;html=1;" vertex="1" parent="NGbSKsDz_yVvKTC_mG_v-22">
          <mxGeometry y="88" width="230" height="60" as="geometry" />
        </mxCell>
        <mxCell id="NGbSKsDz_yVvKTC_mG_v-35" value="" style="endArrow=diamondThin;endFill=0;endSize=24;html=1;rounded=0;entryX=0.5;entryY=0;entryDx=0;entryDy=0;exitX=0.426;exitY=0.971;exitDx=0;exitDy=0;exitPerimeter=0;" edge="1" parent="1" source="NGbSKsDz_yVvKTC_mG_v-25" target="uIqwvRQl_m-xBXEmZ_Bq-3">
          <mxGeometry width="160" relative="1" as="geometry">
            <mxPoint x="251" y="240" as="sourcePoint" />
            <mxPoint x="411" y="240" as="targetPoint" />
          </mxGeometry>
        </mxCell>
        <mxCell id="NGbSKsDz_yVvKTC_mG_v-36" value="1 : n&lt;div&gt;&lt;br&gt;&lt;/div&gt;" style="edgeLabel;html=1;align=center;verticalAlign=middle;resizable=0;points=[];" vertex="1" connectable="0" parent="1">
          <mxGeometry x="425.00289061738636" y="289.9996370367162" as="geometry" />
        </mxCell>
        <mxCell id="OxSxHM6BBvz6ZYmLcubG-1" value="Jogador" style="shape=umlActor;verticalLabelPosition=bottom;verticalAlign=top;html=1;outlineConnect=0;" vertex="1" parent="1">
          <mxGeometry x="656" y="245" width="30" height="60" as="geometry" />
        </mxCell>
        <mxCell id="opJjN3ZHlFEgaIB7e5ph-1" value="Troca de cartas" style="shape=umlActor;verticalLabelPosition=bottom;verticalAlign=top;html=1;outlineConnect=0;" vertex="1" parent="1">
          <mxGeometry x="656" y="55" width="30" height="60" as="geometry" />
        </mxCell>
        <mxCell id="opJjN3ZHlFEgaIB7e5ph-14" style="edgeStyle=none;shape=connector;rounded=0;orthogonalLoop=1;jettySize=auto;html=1;entryX=0;entryY=0.5;entryDx=0;entryDy=0;strokeColor=default;align=center;verticalAlign=middle;fontFamily=Helvetica;fontSize=11;fontColor=default;labelBackgroundColor=default;startFill=0;endArrow=none;" edge="1" parent="1" source="opJjN3ZHlFEgaIB7e5ph-2" target="opJjN3ZHlFEgaIB7e5ph-6">
          <mxGeometry relative="1" as="geometry" />
        </mxCell>
        <mxCell id="opJjN3ZHlFEgaIB7e5ph-2" value="Login" style="shape=umlActor;verticalLabelPosition=bottom;verticalAlign=top;html=1;outlineConnect=0;" vertex="1" parent="1">
          <mxGeometry x="650" y="460" width="30" height="60" as="geometry" />
        </mxCell>
        <mxCell id="opJjN3ZHlFEgaIB7e5ph-4" value="Chamar sistema de troca de cartas" style="ellipse;whiteSpace=wrap;html=1;" vertex="1" parent="1">
          <mxGeometry x="923" y="50" width="140" height="70" as="geometry" />
        </mxCell>
        <mxCell id="opJjN3ZHlFEgaIB7e5ph-5" value="Mostrar cartas" style="ellipse;whiteSpace=wrap;html=1;" vertex="1" parent="1">
          <mxGeometry x="796" y="255" width="140" height="70" as="geometry" />
        </mxCell>
        <mxCell id="opJjN3ZHlFEgaIB7e5ph-6" value="Realizar autenticação" style="ellipse;whiteSpace=wrap;html=1;" vertex="1" parent="1">
          <mxGeometry x="796" y="455" width="140" height="70" as="geometry" />
        </mxCell>
        <mxCell id="opJjN3ZHlFEgaIB7e5ph-7" value="Mostrar baralho" style="ellipse;whiteSpace=wrap;html=1;" vertex="1" parent="1">
          <mxGeometry x="1046" y="185" width="140" height="70" as="geometry" />
        </mxCell>
        <mxCell id="opJjN3ZHlFEgaIB7e5ph-8" value="Mostrar info" style="ellipse;whiteSpace=wrap;html=1;" vertex="1" parent="1">
          <mxGeometry x="1046" y="345" width="140" height="70" as="geometry" />
        </mxCell>
        <mxCell id="opJjN3ZHlFEgaIB7e5ph-11" value="Visualização dos pokemons" style="shape=umlFrame;whiteSpace=wrap;html=1;pointerEvents=0;width=120;height=30;" vertex="1" parent="1">
          <mxGeometry x="756" y="145" width="460" height="280" as="geometry" />
        </mxCell>
        <mxCell id="opJjN3ZHlFEgaIB7e5ph-12" value="Pokedex" style="shape=umlActor;verticalLabelPosition=bottom;verticalAlign=top;html=1;" vertex="1" parent="1">
          <mxGeometry x="1306" y="255" width="30" height="60" as="geometry" />
        </mxCell>
        <mxCell id="opJjN3ZHlFEgaIB7e5ph-13" style="rounded=0;orthogonalLoop=1;jettySize=auto;html=1;entryX=-0.005;entryY=0.423;entryDx=0;entryDy=0;entryPerimeter=0;strokeColor=default;endArrow=none;startFill=0;" edge="1" parent="1" source="OxSxHM6BBvz6ZYmLcubG-1" target="opJjN3ZHlFEgaIB7e5ph-11">
          <mxGeometry relative="1" as="geometry" />
        </mxCell>
        <mxCell id="opJjN3ZHlFEgaIB7e5ph-15" style="edgeStyle=none;shape=connector;rounded=0;orthogonalLoop=1;jettySize=auto;html=1;entryX=-0.01;entryY=0.414;entryDx=0;entryDy=0;entryPerimeter=0;strokeColor=default;align=center;verticalAlign=middle;fontFamily=Helvetica;fontSize=11;fontColor=default;labelBackgroundColor=default;startFill=0;endArrow=none;" edge="1" parent="1" source="opJjN3ZHlFEgaIB7e5ph-1" target="opJjN3ZHlFEgaIB7e5ph-4">
          <mxGeometry relative="1" as="geometry" />
        </mxCell>
        <mxCell id="opJjN3ZHlFEgaIB7e5ph-18" style="edgeStyle=none;shape=connector;rounded=0;orthogonalLoop=1;jettySize=auto;html=1;entryX=1.005;entryY=0.465;entryDx=0;entryDy=0;entryPerimeter=0;strokeColor=default;align=center;verticalAlign=middle;fontFamily=Helvetica;fontSize=11;fontColor=default;labelBackgroundColor=default;startFill=0;endArrow=none;" edge="1" parent="1" source="opJjN3ZHlFEgaIB7e5ph-12" target="opJjN3ZHlFEgaIB7e5ph-11">
          <mxGeometry relative="1" as="geometry" />
        </mxCell>
        <mxCell id="opJjN3ZHlFEgaIB7e5ph-19" value="&amp;lt;&amp;lt;extends&amp;gt;&amp;gt;" style="endArrow=open;endSize=12;dashed=1;html=1;rounded=0;strokeColor=default;align=center;verticalAlign=middle;fontFamily=Helvetica;fontSize=11;fontColor=default;labelBackgroundColor=default;entryX=1;entryY=0.5;entryDx=0;entryDy=0;exitX=0;exitY=0;exitDx=0;exitDy=0;" edge="1" parent="1" source="opJjN3ZHlFEgaIB7e5ph-8" target="opJjN3ZHlFEgaIB7e5ph-5">
          <mxGeometry width="160" relative="1" as="geometry">
            <mxPoint x="926" y="295" as="sourcePoint" />
            <mxPoint x="1086" y="295" as="targetPoint" />
          </mxGeometry>
        </mxCell>
        <mxCell id="opJjN3ZHlFEgaIB7e5ph-20" value="&amp;lt;&amp;lt;extends&amp;gt;&amp;gt;" style="endArrow=open;endSize=12;dashed=1;html=1;rounded=0;strokeColor=default;align=center;verticalAlign=middle;fontFamily=Helvetica;fontSize=11;fontColor=default;labelBackgroundColor=default;entryX=0;entryY=0.5;entryDx=0;entryDy=0;exitX=1;exitY=0.5;exitDx=0;exitDy=0;" edge="1" parent="1" source="opJjN3ZHlFEgaIB7e5ph-5" target="opJjN3ZHlFEgaIB7e5ph-7">
          <mxGeometry x="0.0647" y="-3" width="160" relative="1" as="geometry">
            <mxPoint x="926" y="295" as="sourcePoint" />
            <mxPoint x="1086" y="295" as="targetPoint" />
            <mxPoint as="offset" />
          </mxGeometry>
        </mxCell>
        <mxCell id="opJjN3ZHlFEgaIB7e5ph-21" value="&amp;lt;&amp;lt;extends&amp;gt;&amp;gt;" style="endArrow=open;endSize=12;dashed=1;html=1;rounded=0;strokeColor=default;align=center;verticalAlign=middle;fontFamily=Helvetica;fontSize=11;fontColor=default;labelBackgroundColor=default;entryX=0.5;entryY=1;entryDx=0;entryDy=0;exitX=0.5;exitY=0;exitDx=0;exitDy=0;" edge="1" parent="1" source="opJjN3ZHlFEgaIB7e5ph-8" target="opJjN3ZHlFEgaIB7e5ph-7">
          <mxGeometry width="160" relative="1" as="geometry">
            <mxPoint x="926" y="295" as="sourcePoint" />
            <mxPoint x="1086" y="295" as="targetPoint" />
          </mxGeometry>
        </mxCell>
        <mxCell id="opJjN3ZHlFEgaIB7e5ph-22" value="&amp;lt;&amp;lt;include&amp;gt;&amp;gt;" style="endArrow=open;endSize=12;dashed=1;html=1;rounded=0;strokeColor=default;align=center;verticalAlign=middle;fontFamily=Helvetica;fontSize=11;fontColor=default;labelBackgroundColor=default;entryX=0.5;entryY=0;entryDx=0;entryDy=0;exitX=0.5;exitY=1;exitDx=0;exitDy=0;" edge="1" parent="1" source="opJjN3ZHlFEgaIB7e5ph-5" target="opJjN3ZHlFEgaIB7e5ph-6">
          <mxGeometry width="160" relative="1" as="geometry">
            <mxPoint x="926" y="295" as="sourcePoint" />
            <mxPoint x="1086" y="295" as="targetPoint" />
          </mxGeometry>
        </mxCell>
        <mxCell id="opJjN3ZHlFEgaIB7e5ph-24" value="&amp;lt;&amp;lt;extends&amp;gt;&amp;gt;" style="endArrow=open;endSize=12;dashed=1;html=1;rounded=0;strokeColor=default;align=center;verticalAlign=middle;fontFamily=Helvetica;fontSize=11;fontColor=default;labelBackgroundColor=default;entryX=0.5;entryY=1;entryDx=0;entryDy=0;exitX=0.5;exitY=0;exitDx=0;exitDy=0;" edge="1" parent="1" source="opJjN3ZHlFEgaIB7e5ph-7" target="opJjN3ZHlFEgaIB7e5ph-4">
          <mxGeometry width="160" relative="1" as="geometry">
            <mxPoint x="926" y="205" as="sourcePoint" />
            <mxPoint x="1086" y="205" as="targetPoint" />
          </mxGeometry>
        </mxCell>
        <mxCell id="opJjN3ZHlFEgaIB7e5ph-26" value="Jogador" style="swimlane;fontStyle=1;align=center;verticalAlign=top;childLayout=stackLayout;horizontal=1;startSize=26;horizontalStack=0;resizeParent=1;resizeParentMax=0;resizeLast=0;collapsible=1;marginBottom=0;whiteSpace=wrap;html=1;fontFamily=Helvetica;fontSize=11;fontColor=default;labelBackgroundColor=default;" vertex="1" parent="1">
          <mxGeometry x="40" y="45" width="190" height="148" as="geometry" />
        </mxCell>
        <mxCell id="opJjN3ZHlFEgaIB7e5ph-31" value="+ login: string" style="text;strokeColor=none;fillColor=none;align=left;verticalAlign=top;spacingLeft=4;spacingRight=4;overflow=hidden;rotatable=0;points=[[0,0.5],[1,0.5]];portConstraint=eastwest;whiteSpace=wrap;html=1;fontFamily=Helvetica;fontSize=11;fontColor=default;labelBackgroundColor=default;" vertex="1" parent="opJjN3ZHlFEgaIB7e5ph-26">
          <mxGeometry y="26" width="190" height="26" as="geometry" />
        </mxCell>
        <mxCell id="opJjN3ZHlFEgaIB7e5ph-27" value="+ senha: string" style="text;strokeColor=none;fillColor=none;align=left;verticalAlign=top;spacingLeft=4;spacingRight=4;overflow=hidden;rotatable=0;points=[[0,0.5],[1,0.5]];portConstraint=eastwest;whiteSpace=wrap;html=1;fontFamily=Helvetica;fontSize=11;fontColor=default;labelBackgroundColor=default;" vertex="1" parent="opJjN3ZHlFEgaIB7e5ph-26">
          <mxGeometry y="52" width="190" height="26" as="geometry" />
        </mxCell>
        <mxCell id="opJjN3ZHlFEgaIB7e5ph-28" value="" style="line;strokeWidth=1;fillColor=none;align=left;verticalAlign=middle;spacingTop=-1;spacingLeft=3;spacingRight=3;rotatable=0;labelPosition=right;points=[];portConstraint=eastwest;strokeColor=inherit;fontFamily=Helvetica;fontSize=11;fontColor=default;labelBackgroundColor=default;" vertex="1" parent="opJjN3ZHlFEgaIB7e5ph-26">
          <mxGeometry y="78" width="190" height="8" as="geometry" />
        </mxCell>
        <mxCell id="opJjN3ZHlFEgaIB7e5ph-30" value="+ realizarAutenticacao(login: string, senha: string): bool" style="text;strokeColor=none;fillColor=none;align=left;verticalAlign=top;spacingLeft=4;spacingRight=4;overflow=hidden;rotatable=0;points=[[0,0.5],[1,0.5]];portConstraint=eastwest;whiteSpace=wrap;html=1;fontFamily=Helvetica;fontSize=11;fontColor=default;labelBackgroundColor=default;" vertex="1" parent="opJjN3ZHlFEgaIB7e5ph-26">
          <mxGeometry y="86" width="190" height="34" as="geometry" />
        </mxCell>
        <mxCell id="opJjN3ZHlFEgaIB7e5ph-29" value="+ chamarSistemaDeTroca(): void" style="text;strokeColor=none;fillColor=none;align=left;verticalAlign=top;spacingLeft=4;spacingRight=4;overflow=hidden;rotatable=0;points=[[0,0.5],[1,0.5]];portConstraint=eastwest;whiteSpace=wrap;html=1;fontFamily=Helvetica;fontSize=11;fontColor=default;labelBackgroundColor=default;" vertex="1" parent="opJjN3ZHlFEgaIB7e5ph-26">
          <mxGeometry y="120" width="190" height="28" as="geometry" />
        </mxCell>
        <mxCell id="opJjN3ZHlFEgaIB7e5ph-32" value="" style="endArrow=diamondThin;endFill=1;endSize=24;html=1;rounded=0;strokeColor=default;align=center;verticalAlign=middle;fontFamily=Helvetica;fontSize=11;fontColor=default;labelBackgroundColor=default;exitX=0;exitY=0.5;exitDx=0;exitDy=0;entryX=1;entryY=0.5;entryDx=0;entryDy=0;" edge="1" parent="1" source="NGbSKsDz_yVvKTC_mG_v-23" target="opJjN3ZHlFEgaIB7e5ph-27">
          <mxGeometry width="160" relative="1" as="geometry">
            <mxPoint x="380" y="215" as="sourcePoint" />
            <mxPoint x="540" y="215" as="targetPoint" />
          </mxGeometry>
        </mxCell>
        <mxCell id="uIqwvRQl_m-xBXEmZ_Bq-3" value="Carta" style="swimlane;fontStyle=1;align=center;verticalAlign=top;childLayout=stackLayout;horizontal=1;startSize=26;horizontalStack=0;resizeParent=1;resizeParentMax=0;resizeLast=0;collapsible=1;marginBottom=0;whiteSpace=wrap;html=1;fontFamily=Helvetica;fontSize=11;fontColor=default;labelBackgroundColor=default;" vertex="1" parent="1">
          <mxGeometry x="325" y="370" width="200" height="264" as="geometry" />
        </mxCell>
        <mxCell id="NGbSKsDz_yVvKTC_mG_v-27" value="&lt;div&gt;+ int HP&lt;/div&gt;&lt;div&gt;&lt;br&gt;&lt;/div&gt;&lt;div&gt;+ string habilidade&lt;/div&gt;&lt;div&gt;&lt;br&gt;&lt;/div&gt;&lt;div&gt;+ string descricao&lt;/div&gt;&lt;div&gt;&lt;br&gt;&lt;/div&gt;&lt;div&gt;+ string&amp;nbsp; tipo&lt;/div&gt;&lt;div&gt;&lt;br&gt;&lt;/div&gt;&lt;div&gt;+ string nome&lt;/div&gt;&lt;div&gt;&lt;br&gt;&lt;/div&gt;&lt;div&gt;+ bool visto&lt;/div&gt;&lt;div&gt;&lt;br&gt;&lt;/div&gt;&lt;div&gt;+ bool no_baralho&lt;/div&gt;" style="text;strokeColor=none;fillColor=none;align=left;verticalAlign=top;spacingLeft=4;spacingRight=4;overflow=hidden;rotatable=0;points=[[0,0.5],[1,0.5]];portConstraint=eastwest;whiteSpace=wrap;html=1;" vertex="1" parent="uIqwvRQl_m-xBXEmZ_Bq-3">
          <mxGeometry y="26" width="200" height="204" as="geometry" />
        </mxCell>
        <mxCell id="uIqwvRQl_m-xBXEmZ_Bq-5" value="" style="line;strokeWidth=1;fillColor=none;align=left;verticalAlign=middle;spacingTop=-1;spacingLeft=3;spacingRight=3;rotatable=0;labelPosition=right;points=[];portConstraint=eastwest;strokeColor=inherit;fontFamily=Helvetica;fontSize=11;fontColor=default;labelBackgroundColor=default;" vertex="1" parent="uIqwvRQl_m-xBXEmZ_Bq-3">
          <mxGeometry y="230" width="200" height="8" as="geometry" />
        </mxCell>
        <mxCell id="uIqwvRQl_m-xBXEmZ_Bq-6" value="+ mostrarInfo(): void" style="text;strokeColor=none;fillColor=none;align=left;verticalAlign=top;spacingLeft=4;spacingRight=4;overflow=hidden;rotatable=0;points=[[0,0.5],[1,0.5]];portConstraint=eastwest;whiteSpace=wrap;html=1;fontFamily=Helvetica;fontSize=11;fontColor=default;labelBackgroundColor=default;" vertex="1" parent="uIqwvRQl_m-xBXEmZ_Bq-3">
          <mxGeometry y="238" width="200" height="26" as="geometry" />
        </mxCell>
      </root>
    </mxGraphModel>
  </diagram>
</mxfile>
